<?xml version="1.0" encoding="utf-8" standalone="no"?>
<!DOCTYPE svg PUBLIC "-//W3C//DTD SVG 1.1//EN"
  "http://www.w3.org/Graphics/SVG/1.1/DTD/svg11.dtd">
<!-- Created with matplotlib (https://matplotlib.org/) -->
<svg height="345.6pt" version="1.1" viewBox="0 0 460.8 345.6" width="460.8pt" xmlns="http://www.w3.org/2000/svg" xmlns:xlink="http://www.w3.org/1999/xlink">
 <defs>
  <style type="text/css">
*{stroke-linecap:butt;stroke-linejoin:round;}
  </style>
 </defs>
 <g id="figure_1">
  <g id="patch_1">
   <path d="M 0 345.6 
L 460.8 345.6 
L 460.8 0 
L 0 0 
z
" style="fill:#ffffff;"/>
  </g>
  <g id="axes_1">
   <g id="patch_2">
    <path d="M 40.03 317.72 
L 447.48 317.72 
L 447.48 41.856 
L 40.03 41.856 
z
" style="fill:#ffffff;"/>
   </g>
   <g id="patch_3">
    <path clip-path="url(#p08316caf05)" d="M 58.550455 317.72 
L 63.123406 317.72 
L 63.123406 317.72 
L 58.550455 317.72 
z
" style="fill:#ff0000;"/>
   </g>
   <g id="patch_4">
    <path clip-path="url(#p08316caf05)" d="M 81.415213 317.72 
L 85.988165 317.72 
L 85.988165 317.72 
L 81.415213 317.72 
z
" style="fill:#ff0000;"/>
   </g>
   <g id="patch_5">
    <path clip-path="url(#p08316caf05)" d="M 104.279972 317.72 
L 108.852924 317.72 
L 108.852924 317.72 
L 104.279972 317.72 
z
" style="fill:#ff0000;"/>
   </g>
   <g id="patch_6">
    <path clip-path="url(#p08316caf05)" d="M 127.144731 317.72 
L 131.717682 317.72 
L 131.717682 317.72 
L 127.144731 317.72 
z
" style="fill:#ff0000;"/>
   </g>
   <g id="patch_7">
    <path clip-path="url(#p08316caf05)" d="M 150.009489 317.72 
L 154.582441 317.72 
L 154.582441 317.72 
L 150.009489 317.72 
z
" style="fill:#ff0000;"/>
   </g>
   <g id="patch_8">
    <path clip-path="url(#p08316caf05)" d="M 172.874248 317.72 
L 177.4472 317.72 
L 177.4472 317.72 
L 172.874248 317.72 
z
" style="fill:#ff0000;"/>
   </g>
   <g id="patch_9">
    <path clip-path="url(#p08316caf05)" d="M 212.887576 317.72 
L 217.460527 317.72 
L 217.460527 317.72 
L 212.887576 317.72 
z
" style="fill:#ff0000;"/>
   </g>
   <g id="patch_10">
    <path clip-path="url(#p08316caf05)" d="M 235.752334 317.72 
L 240.325286 317.72 
L 240.325286 317.72 
L 235.752334 317.72 
z
" style="fill:#ff0000;"/>
   </g>
   <g id="patch_11">
    <path clip-path="url(#p08316caf05)" d="M 258.617093 317.72 
L 263.190045 317.72 
L 263.190045 306.488285 
L 258.617093 306.488285 
z
" style="fill:#ff0000;"/>
   </g>
   <g id="patch_12">
    <path clip-path="url(#p08316caf05)" d="M 298.630421 317.72 
L 303.203373 317.72 
L 303.203373 317.72 
L 298.630421 317.72 
z
" style="fill:#ff0000;"/>
   </g>
   <g id="patch_13">
    <path clip-path="url(#p08316caf05)" d="M 321.49518 317.72 
L 326.068131 317.72 
L 326.068131 317.72 
L 321.49518 317.72 
z
" style="fill:#ff0000;"/>
   </g>
   <g id="patch_14">
    <path clip-path="url(#p08316caf05)" d="M 361.508507 317.72 
L 366.081459 317.72 
L 366.081459 285.57299 
L 361.508507 285.57299 
z
" style="fill:#ff0000;"/>
   </g>
   <g id="patch_15">
    <path clip-path="url(#p08316caf05)" d="M 384.373266 317.72 
L 388.946218 317.72 
L 388.946218 317.72 
L 384.373266 317.72 
z
" style="fill:#ff0000;"/>
   </g>
   <g id="patch_16">
    <path clip-path="url(#p08316caf05)" d="M 407.238025 317.72 
L 411.810976 317.72 
L 411.810976 317.72 
L 407.238025 317.72 
z
" style="fill:#ff0000;"/>
   </g>
   <g id="patch_17">
    <path clip-path="url(#p08316caf05)" d="M 64.266644 317.72 
L 68.839596 317.72 
L 68.839596 317.72 
L 64.266644 317.72 
z
" style="fill:#0000ff;"/>
   </g>
   <g id="patch_18">
    <path clip-path="url(#p08316caf05)" d="M 87.131403 317.72 
L 91.704355 317.72 
L 91.704355 317.72 
L 87.131403 317.72 
z
" style="fill:#0000ff;"/>
   </g>
   <g id="patch_19">
    <path clip-path="url(#p08316caf05)" d="M 109.996162 317.72 
L 114.569113 317.72 
L 114.569113 317.72 
L 109.996162 317.72 
z
" style="fill:#0000ff;"/>
   </g>
   <g id="patch_20">
    <path clip-path="url(#p08316caf05)" d="M 132.86092 317.72 
L 137.433872 317.72 
L 137.433872 317.72 
L 132.86092 317.72 
z
" style="fill:#0000ff;"/>
   </g>
   <g id="patch_21">
    <path clip-path="url(#p08316caf05)" d="M 155.725679 317.72 
L 160.298631 317.72 
L 160.298631 317.72 
L 155.725679 317.72 
z
" style="fill:#0000ff;"/>
   </g>
   <g id="patch_22">
    <path clip-path="url(#p08316caf05)" d="M 178.590438 317.72 
L 183.163389 317.72 
L 183.163389 317.72 
L 178.590438 317.72 
z
" style="fill:#0000ff;"/>
   </g>
   <g id="patch_23">
    <path clip-path="url(#p08316caf05)" d="M 195.739007 317.72 
L 200.311958 317.72 
L 200.311958 317.72 
L 195.739007 317.72 
z
" style="fill:#0000ff;"/>
   </g>
   <g id="patch_24">
    <path clip-path="url(#p08316caf05)" d="M 218.603765 317.72 
L 223.176717 317.72 
L 223.176717 317.72 
L 218.603765 317.72 
z
" style="fill:#0000ff;"/>
   </g>
   <g id="patch_25">
    <path clip-path="url(#p08316caf05)" d="M 241.468524 317.72 
L 246.041476 317.72 
L 246.041476 317.72 
L 241.468524 317.72 
z
" style="fill:#0000ff;"/>
   </g>
   <g id="patch_26">
    <path clip-path="url(#p08316caf05)" d="M 264.333283 317.72 
L 268.906235 317.72 
L 268.906235 317.72 
L 264.333283 317.72 
z
" style="fill:#0000ff;"/>
   </g>
   <g id="patch_27">
    <path clip-path="url(#p08316caf05)" d="M 281.481852 317.72 
L 286.054804 317.72 
L 286.054804 317.72 
L 281.481852 317.72 
z
" style="fill:#0000ff;"/>
   </g>
   <g id="patch_28">
    <path clip-path="url(#p08316caf05)" d="M 304.346611 317.72 
L 308.919562 317.72 
L 308.919562 317.72 
L 304.346611 317.72 
z
" style="fill:#0000ff;"/>
   </g>
   <g id="patch_29">
    <path clip-path="url(#p08316caf05)" d="M 327.211369 317.72 
L 331.784321 317.72 
L 331.784321 317.72 
L 327.211369 317.72 
z
" style="fill:#0000ff;"/>
   </g>
   <g id="patch_30">
    <path clip-path="url(#p08316caf05)" d="M 344.359938 317.72 
L 348.93289 317.72 
L 348.93289 317.72 
L 344.359938 317.72 
z
" style="fill:#0000ff;"/>
   </g>
   <g id="patch_31">
    <path clip-path="url(#p08316caf05)" d="M 367.224697 317.72 
L 371.797649 317.72 
L 371.797649 317.72 
L 367.224697 317.72 
z
" style="fill:#0000ff;"/>
   </g>
   <g id="patch_32">
    <path clip-path="url(#p08316caf05)" d="M 390.089456 317.72 
L 394.662407 317.72 
L 394.662407 317.72 
L 390.089456 317.72 
z
" style="fill:#0000ff;"/>
   </g>
   <g id="patch_33">
    <path clip-path="url(#p08316caf05)" d="M 412.954214 317.72 
L 417.527166 317.72 
L 417.527166 317.72 
L 412.954214 317.72 
z
" style="fill:#0000ff;"/>
   </g>
   <g id="patch_34">
    <path clip-path="url(#p08316caf05)" d="M 69.982834 317.72 
L 74.555786 317.72 
L 74.555786 317.72 
L 69.982834 317.72 
z
" style="fill:#008000;"/>
   </g>
   <g id="patch_35">
    <path clip-path="url(#p08316caf05)" d="M 92.847593 317.72 
L 97.420544 317.72 
L 97.420544 317.72 
L 92.847593 317.72 
z
" style="fill:#008000;"/>
   </g>
   <g id="patch_36">
    <path clip-path="url(#p08316caf05)" d="M 115.712351 317.72 
L 120.285303 317.72 
L 120.285303 317.72 
L 115.712351 317.72 
z
" style="fill:#008000;"/>
   </g>
   <g id="patch_37">
    <path clip-path="url(#p08316caf05)" d="M 138.57711 317.72 
L 143.150062 317.72 
L 143.150062 317.72 
L 138.57711 317.72 
z
" style="fill:#008000;"/>
   </g>
   <g id="patch_38">
    <path clip-path="url(#p08316caf05)" d="M 161.441869 317.72 
L 166.01482 317.72 
L 166.01482 317.72 
L 161.441869 317.72 
z
" style="fill:#008000;"/>
   </g>
   <g id="patch_39">
    <path clip-path="url(#p08316caf05)" d="M 184.306627 317.72 
L 188.879579 317.72 
L 188.879579 146.042654 
L 184.306627 146.042654 
z
" style="fill:#008000;"/>
   </g>
   <g id="patch_40">
    <path clip-path="url(#p08316caf05)" d="M 201.455196 317.72 
L 206.028148 317.72 
L 206.028148 145.668445 
L 201.455196 145.668445 
z
" style="fill:#008000;"/>
   </g>
   <g id="patch_41">
    <path clip-path="url(#p08316caf05)" d="M 224.319955 317.72 
L 228.892907 317.72 
L 228.892907 317.72 
L 224.319955 317.72 
z
" style="fill:#008000;"/>
   </g>
   <g id="patch_42">
    <path clip-path="url(#p08316caf05)" d="M 247.184714 317.72 
L 251.757666 317.72 
L 251.757666 317.72 
L 247.184714 317.72 
z
" style="fill:#008000;"/>
   </g>
   <g id="patch_43">
    <path clip-path="url(#p08316caf05)" d="M 270.049473 317.72 
L 274.622424 317.72 
L 274.622424 143.96497 
L 270.049473 143.96497 
z
" style="fill:#008000;"/>
   </g>
   <g id="patch_44">
    <path clip-path="url(#p08316caf05)" d="M 287.198042 317.72 
L 291.770993 317.72 
L 291.770993 144.320144 
L 287.198042 144.320144 
z
" style="fill:#008000;"/>
   </g>
   <g id="patch_45">
    <path clip-path="url(#p08316caf05)" d="M 310.0628 317.72 
L 314.635752 317.72 
L 314.635752 317.72 
L 310.0628 317.72 
z
" style="fill:#008000;"/>
   </g>
   <g id="patch_46">
    <path clip-path="url(#p08316caf05)" d="M 332.927559 317.72 
L 337.500511 317.72 
L 337.500511 54.992381 
L 332.927559 54.992381 
z
" style="fill:#008000;"/>
   </g>
   <g id="patch_47">
    <path clip-path="url(#p08316caf05)" d="M 350.076128 317.72 
L 354.64908 317.72 
L 354.64908 62.41726 
L 350.076128 62.41726 
z
" style="fill:#008000;"/>
   </g>
   <g id="patch_48">
    <path clip-path="url(#p08316caf05)" d="M 372.940887 317.72 
L 377.513838 317.72 
L 377.513838 317.72 
L 372.940887 317.72 
z
" style="fill:#008000;"/>
   </g>
   <g id="patch_49">
    <path clip-path="url(#p08316caf05)" d="M 395.805645 317.72 
L 400.378597 317.72 
L 400.378597 317.72 
L 395.805645 317.72 
z
" style="fill:#008000;"/>
   </g>
   <g id="patch_50">
    <path clip-path="url(#p08316caf05)" d="M 418.670404 317.72 
L 423.243356 317.72 
L 423.243356 317.72 
L 418.670404 317.72 
z
" style="fill:#008000;"/>
   </g>
   <g id="patch_51">
    <path clip-path="url(#p08316caf05)" d="M 75.699024 317.72 
L 80.271975 317.72 
L 80.271975 292.942868 
L 75.699024 292.942868 
z
"/>
   </g>
   <g id="patch_52">
    <path clip-path="url(#p08316caf05)" d="M 98.563782 317.72 
L 103.136734 317.72 
L 103.136734 305.390349 
L 98.563782 305.390349 
z
"/>
   </g>
   <g id="patch_53">
    <path clip-path="url(#p08316caf05)" d="M 121.428541 317.72 
L 126.001493 317.72 
L 126.001493 292.983343 
L 121.428541 292.983343 
z
"/>
   </g>
   <g id="patch_54">
    <path clip-path="url(#p08316caf05)" d="M 144.2933 317.72 
L 148.866251 317.72 
L 148.866251 296.23045 
L 144.2933 296.23045 
z
"/>
   </g>
   <g id="patch_55">
    <path clip-path="url(#p08316caf05)" d="M 167.158058 317.72 
L 171.73101 317.72 
L 171.73101 288.040798 
L 167.158058 288.040798 
z
"/>
   </g>
   <g id="patch_56">
    <path clip-path="url(#p08316caf05)" d="M 190.022817 317.72 
L 194.595769 317.72 
L 194.595769 304.963297 
L 190.022817 304.963297 
z
"/>
   </g>
   <g id="patch_57">
    <path clip-path="url(#p08316caf05)" d="M 207.171386 317.72 
L 211.744338 317.72 
L 211.744338 305.306768 
L 207.171386 305.306768 
z
"/>
   </g>
   <g id="patch_58">
    <path clip-path="url(#p08316caf05)" d="M 230.036145 317.72 
L 234.609097 317.72 
L 234.609097 305.034474 
L 230.036145 305.034474 
z
"/>
   </g>
   <g id="patch_59">
    <path clip-path="url(#p08316caf05)" d="M 252.900903 317.72 
L 257.473855 317.72 
L 257.473855 303.933591 
L 252.900903 303.933591 
z
"/>
   </g>
   <g id="patch_60">
    <path clip-path="url(#p08316caf05)" d="M 275.765662 317.72 
L 280.338614 317.72 
L 280.338614 306.490142 
L 275.765662 306.490142 
z
"/>
   </g>
   <g id="patch_61">
    <path clip-path="url(#p08316caf05)" d="M 292.914231 317.72 
L 297.487183 317.72 
L 297.487183 306.51259 
L 292.914231 306.51259 
z
"/>
   </g>
   <g id="patch_62">
    <path clip-path="url(#p08316caf05)" d="M 315.77899 317.72 
L 320.351942 317.72 
L 320.351942 302.867432 
L 315.77899 302.867432 
z
"/>
   </g>
   <g id="patch_63">
    <path clip-path="url(#p08316caf05)" d="M 338.643749 317.72 
L 343.2167 317.72 
L 343.2167 295.668302 
L 338.643749 295.668302 
z
"/>
   </g>
   <g id="patch_64">
    <path clip-path="url(#p08316caf05)" d="M 355.792318 317.72 
L 360.365269 317.72 
L 360.365269 295.566568 
L 355.792318 295.566568 
z
"/>
   </g>
   <g id="patch_65">
    <path clip-path="url(#p08316caf05)" d="M 378.657076 317.72 
L 383.230028 317.72 
L 383.230028 304.761339 
L 378.657076 304.761339 
z
"/>
   </g>
   <g id="patch_66">
    <path clip-path="url(#p08316caf05)" d="M 401.521835 317.72 
L 406.094787 317.72 
L 406.094787 293.731711 
L 401.521835 293.731711 
z
"/>
   </g>
   <g id="patch_67">
    <path clip-path="url(#p08316caf05)" d="M 424.386594 317.72 
L 428.959545 317.72 
L 428.959545 296.137781 
L 424.386594 296.137781 
z
"/>
   </g>
   <g id="matplotlib.axis_1">
    <g id="xtick_1">
     <g id="line2d_1">
      <defs>
       <path d="M 0 0 
L 0 3.5 
" id="m1c63c457c6" style="stroke:#000000;stroke-width:0.8;"/>
      </defs>
      <g>
       <use style="stroke:#000000;stroke-width:0.8;" x="60.83693" xlink:href="#m1c63c457c6" y="317.72"/>
      </g>
     </g>
     <g id="text_1">
      <!-- 1 -->
      <defs>
       <path d="M 12.40625 8.296875 
L 28.515625 8.296875 
L 28.515625 63.921875 
L 10.984375 60.40625 
L 10.984375 69.390625 
L 28.421875 72.90625 
L 38.28125 72.90625 
L 38.28125 8.296875 
L 54.390625 8.296875 
L 54.390625 0 
L 12.40625 0 
z
" id="DejaVuSans-49"/>
      </defs>
      <g transform="translate(57.65568 332.318437)scale(0.1 -0.1)">
       <use xlink:href="#DejaVuSans-49"/>
      </g>
     </g>
    </g>
    <g id="xtick_2">
     <g id="line2d_2">
      <g>
       <use style="stroke:#000000;stroke-width:0.8;" x="83.701689" xlink:href="#m1c63c457c6" y="317.72"/>
      </g>
     </g>
     <g id="text_2">
      <!-- 5 -->
      <defs>
       <path d="M 10.796875 72.90625 
L 49.515625 72.90625 
L 49.515625 64.59375 
L 19.828125 64.59375 
L 19.828125 46.734375 
Q 21.96875 47.46875 24.109375 47.828125 
Q 26.265625 48.1875 28.421875 48.1875 
Q 40.625 48.1875 47.75 41.5 
Q 54.890625 34.8125 54.890625 23.390625 
Q 54.890625 11.625 47.5625 5.09375 
Q 40.234375 -1.421875 26.90625 -1.421875 
Q 22.3125 -1.421875 17.546875 -0.640625 
Q 12.796875 0.140625 7.71875 1.703125 
L 7.71875 11.625 
Q 12.109375 9.234375 16.796875 8.0625 
Q 21.484375 6.890625 26.703125 6.890625 
Q 35.15625 6.890625 40.078125 11.328125 
Q 45.015625 15.765625 45.015625 23.390625 
Q 45.015625 31 40.078125 35.4375 
Q 35.15625 39.890625 26.703125 39.890625 
Q 22.75 39.890625 18.8125 39.015625 
Q 14.890625 38.140625 10.796875 36.28125 
z
" id="DejaVuSans-53"/>
      </defs>
      <g transform="translate(80.520439 332.318437)scale(0.1 -0.1)">
       <use xlink:href="#DejaVuSans-53"/>
      </g>
     </g>
    </g>
    <g id="xtick_3">
     <g id="line2d_3">
      <g>
       <use style="stroke:#000000;stroke-width:0.8;" x="106.566448" xlink:href="#m1c63c457c6" y="317.72"/>
      </g>
     </g>
     <g id="text_3">
      <!-- 9 -->
      <defs>
       <path d="M 10.984375 1.515625 
L 10.984375 10.5 
Q 14.703125 8.734375 18.5 7.8125 
Q 22.3125 6.890625 25.984375 6.890625 
Q 35.75 6.890625 40.890625 13.453125 
Q 46.046875 20.015625 46.78125 33.40625 
Q 43.953125 29.203125 39.59375 26.953125 
Q 35.25 24.703125 29.984375 24.703125 
Q 19.046875 24.703125 12.671875 31.3125 
Q 6.296875 37.9375 6.296875 49.421875 
Q 6.296875 60.640625 12.9375 67.421875 
Q 19.578125 74.21875 30.609375 74.21875 
Q 43.265625 74.21875 49.921875 64.515625 
Q 56.59375 54.828125 56.59375 36.375 
Q 56.59375 19.140625 48.40625 8.859375 
Q 40.234375 -1.421875 26.421875 -1.421875 
Q 22.703125 -1.421875 18.890625 -0.6875 
Q 15.09375 0.046875 10.984375 1.515625 
z
M 30.609375 32.421875 
Q 37.25 32.421875 41.125 36.953125 
Q 45.015625 41.5 45.015625 49.421875 
Q 45.015625 57.28125 41.125 61.84375 
Q 37.25 66.40625 30.609375 66.40625 
Q 23.96875 66.40625 20.09375 61.84375 
Q 16.21875 57.28125 16.21875 49.421875 
Q 16.21875 41.5 20.09375 36.953125 
Q 23.96875 32.421875 30.609375 32.421875 
z
" id="DejaVuSans-57"/>
      </defs>
      <g transform="translate(103.385198 332.318437)scale(0.1 -0.1)">
       <use xlink:href="#DejaVuSans-57"/>
      </g>
     </g>
    </g>
    <g id="xtick_4">
     <g id="line2d_4">
      <g>
       <use style="stroke:#000000;stroke-width:0.8;" x="129.431207" xlink:href="#m1c63c457c6" y="317.72"/>
      </g>
     </g>
     <g id="text_4">
      <!-- 13 -->
      <defs>
       <path d="M 40.578125 39.3125 
Q 47.65625 37.796875 51.625 33 
Q 55.609375 28.21875 55.609375 21.1875 
Q 55.609375 10.40625 48.1875 4.484375 
Q 40.765625 -1.421875 27.09375 -1.421875 
Q 22.515625 -1.421875 17.65625 -0.515625 
Q 12.796875 0.390625 7.625 2.203125 
L 7.625 11.71875 
Q 11.71875 9.328125 16.59375 8.109375 
Q 21.484375 6.890625 26.8125 6.890625 
Q 36.078125 6.890625 40.9375 10.546875 
Q 45.796875 14.203125 45.796875 21.1875 
Q 45.796875 27.640625 41.28125 31.265625 
Q 36.765625 34.90625 28.71875 34.90625 
L 20.21875 34.90625 
L 20.21875 43.015625 
L 29.109375 43.015625 
Q 36.375 43.015625 40.234375 45.921875 
Q 44.09375 48.828125 44.09375 54.296875 
Q 44.09375 59.90625 40.109375 62.90625 
Q 36.140625 65.921875 28.71875 65.921875 
Q 24.65625 65.921875 20.015625 65.03125 
Q 15.375 64.15625 9.8125 62.3125 
L 9.8125 71.09375 
Q 15.4375 72.65625 20.34375 73.4375 
Q 25.25 74.21875 29.59375 74.21875 
Q 40.828125 74.21875 47.359375 69.109375 
Q 53.90625 64.015625 53.90625 55.328125 
Q 53.90625 49.265625 50.4375 45.09375 
Q 46.96875 40.921875 40.578125 39.3125 
z
" id="DejaVuSans-51"/>
      </defs>
      <g transform="translate(123.068707 332.318437)scale(0.1 -0.1)">
       <use xlink:href="#DejaVuSans-49"/>
       <use x="63.623047" xlink:href="#DejaVuSans-51"/>
      </g>
     </g>
    </g>
    <g id="xtick_5">
     <g id="line2d_5">
      <g>
       <use style="stroke:#000000;stroke-width:0.8;" x="152.295965" xlink:href="#m1c63c457c6" y="317.72"/>
      </g>
     </g>
     <g id="text_5">
      <!-- 17 -->
      <defs>
       <path d="M 8.203125 72.90625 
L 55.078125 72.90625 
L 55.078125 68.703125 
L 28.609375 0 
L 18.3125 0 
L 43.21875 64.59375 
L 8.203125 64.59375 
z
" id="DejaVuSans-55"/>
      </defs>
      <g transform="translate(145.933465 332.318437)scale(0.1 -0.1)">
       <use xlink:href="#DejaVuSans-49"/>
       <use x="63.623047" xlink:href="#DejaVuSans-55"/>
      </g>
     </g>
    </g>
    <g id="xtick_6">
     <g id="line2d_6">
      <g>
       <use style="stroke:#000000;stroke-width:0.8;" x="175.160724" xlink:href="#m1c63c457c6" y="317.72"/>
      </g>
     </g>
     <g id="text_6">
      <!-- 21 -->
      <defs>
       <path d="M 19.1875 8.296875 
L 53.609375 8.296875 
L 53.609375 0 
L 7.328125 0 
L 7.328125 8.296875 
Q 12.9375 14.109375 22.625 23.890625 
Q 32.328125 33.6875 34.8125 36.53125 
Q 39.546875 41.84375 41.421875 45.53125 
Q 43.3125 49.21875 43.3125 52.78125 
Q 43.3125 58.59375 39.234375 62.25 
Q 35.15625 65.921875 28.609375 65.921875 
Q 23.96875 65.921875 18.8125 64.3125 
Q 13.671875 62.703125 7.8125 59.421875 
L 7.8125 69.390625 
Q 13.765625 71.78125 18.9375 73 
Q 24.125 74.21875 28.421875 74.21875 
Q 39.75 74.21875 46.484375 68.546875 
Q 53.21875 62.890625 53.21875 53.421875 
Q 53.21875 48.921875 51.53125 44.890625 
Q 49.859375 40.875 45.40625 35.40625 
Q 44.1875 33.984375 37.640625 27.21875 
Q 31.109375 20.453125 19.1875 8.296875 
z
" id="DejaVuSans-50"/>
      </defs>
      <g transform="translate(168.798224 332.318437)scale(0.1 -0.1)">
       <use xlink:href="#DejaVuSans-50"/>
       <use x="63.623047" xlink:href="#DejaVuSans-49"/>
      </g>
     </g>
    </g>
    <g id="xtick_7">
     <g id="line2d_7">
      <g>
       <use style="stroke:#000000;stroke-width:0.8;" x="215.174052" xlink:href="#m1c63c457c6" y="317.72"/>
      </g>
     </g>
     <g id="text_7">
      <!-- 28 -->
      <defs>
       <path d="M 31.78125 34.625 
Q 24.75 34.625 20.71875 30.859375 
Q 16.703125 27.09375 16.703125 20.515625 
Q 16.703125 13.921875 20.71875 10.15625 
Q 24.75 6.390625 31.78125 6.390625 
Q 38.8125 6.390625 42.859375 10.171875 
Q 46.921875 13.96875 46.921875 20.515625 
Q 46.921875 27.09375 42.890625 30.859375 
Q 38.875 34.625 31.78125 34.625 
z
M 21.921875 38.8125 
Q 15.578125 40.375 12.03125 44.71875 
Q 8.5 49.078125 8.5 55.328125 
Q 8.5 64.0625 14.71875 69.140625 
Q 20.953125 74.21875 31.78125 74.21875 
Q 42.671875 74.21875 48.875 69.140625 
Q 55.078125 64.0625 55.078125 55.328125 
Q 55.078125 49.078125 51.53125 44.71875 
Q 48 40.375 41.703125 38.8125 
Q 48.828125 37.15625 52.796875 32.3125 
Q 56.78125 27.484375 56.78125 20.515625 
Q 56.78125 9.90625 50.3125 4.234375 
Q 43.84375 -1.421875 31.78125 -1.421875 
Q 19.734375 -1.421875 13.25 4.234375 
Q 6.78125 9.90625 6.78125 20.515625 
Q 6.78125 27.484375 10.78125 32.3125 
Q 14.796875 37.15625 21.921875 38.8125 
z
M 18.3125 54.390625 
Q 18.3125 48.734375 21.84375 45.5625 
Q 25.390625 42.390625 31.78125 42.390625 
Q 38.140625 42.390625 41.71875 45.5625 
Q 45.3125 48.734375 45.3125 54.390625 
Q 45.3125 60.0625 41.71875 63.234375 
Q 38.140625 66.40625 31.78125 66.40625 
Q 25.390625 66.40625 21.84375 63.234375 
Q 18.3125 60.0625 18.3125 54.390625 
z
" id="DejaVuSans-56"/>
      </defs>
      <g transform="translate(208.811552 332.318437)scale(0.1 -0.1)">
       <use xlink:href="#DejaVuSans-50"/>
       <use x="63.623047" xlink:href="#DejaVuSans-56"/>
      </g>
     </g>
    </g>
    <g id="xtick_8">
     <g id="line2d_8">
      <g>
       <use style="stroke:#000000;stroke-width:0.8;" x="238.03881" xlink:href="#m1c63c457c6" y="317.72"/>
      </g>
     </g>
     <g id="text_8">
      <!-- 32 -->
      <g transform="translate(231.67631 332.318437)scale(0.1 -0.1)">
       <use xlink:href="#DejaVuSans-51"/>
       <use x="63.623047" xlink:href="#DejaVuSans-50"/>
      </g>
     </g>
    </g>
    <g id="xtick_9">
     <g id="line2d_9">
      <g>
       <use style="stroke:#000000;stroke-width:0.8;" x="260.903569" xlink:href="#m1c63c457c6" y="317.72"/>
      </g>
     </g>
     <g id="text_9">
      <!-- 36 -->
      <defs>
       <path d="M 33.015625 40.375 
Q 26.375 40.375 22.484375 35.828125 
Q 18.609375 31.296875 18.609375 23.390625 
Q 18.609375 15.53125 22.484375 10.953125 
Q 26.375 6.390625 33.015625 6.390625 
Q 39.65625 6.390625 43.53125 10.953125 
Q 47.40625 15.53125 47.40625 23.390625 
Q 47.40625 31.296875 43.53125 35.828125 
Q 39.65625 40.375 33.015625 40.375 
z
M 52.59375 71.296875 
L 52.59375 62.3125 
Q 48.875 64.0625 45.09375 64.984375 
Q 41.3125 65.921875 37.59375 65.921875 
Q 27.828125 65.921875 22.671875 59.328125 
Q 17.53125 52.734375 16.796875 39.40625 
Q 19.671875 43.65625 24.015625 45.921875 
Q 28.375 48.1875 33.59375 48.1875 
Q 44.578125 48.1875 50.953125 41.515625 
Q 57.328125 34.859375 57.328125 23.390625 
Q 57.328125 12.15625 50.6875 5.359375 
Q 44.046875 -1.421875 33.015625 -1.421875 
Q 20.359375 -1.421875 13.671875 8.265625 
Q 6.984375 17.96875 6.984375 36.375 
Q 6.984375 53.65625 15.1875 63.9375 
Q 23.390625 74.21875 37.203125 74.21875 
Q 40.921875 74.21875 44.703125 73.484375 
Q 48.484375 72.75 52.59375 71.296875 
z
" id="DejaVuSans-54"/>
      </defs>
      <g transform="translate(254.541069 332.318437)scale(0.1 -0.1)">
       <use xlink:href="#DejaVuSans-51"/>
       <use x="63.623047" xlink:href="#DejaVuSans-54"/>
      </g>
     </g>
    </g>
    <g id="xtick_10">
     <g id="line2d_10">
      <g>
       <use style="stroke:#000000;stroke-width:0.8;" x="300.916897" xlink:href="#m1c63c457c6" y="317.72"/>
      </g>
     </g>
     <g id="text_10">
      <!-- 43 -->
      <defs>
       <path d="M 37.796875 64.3125 
L 12.890625 25.390625 
L 37.796875 25.390625 
z
M 35.203125 72.90625 
L 47.609375 72.90625 
L 47.609375 25.390625 
L 58.015625 25.390625 
L 58.015625 17.1875 
L 47.609375 17.1875 
L 47.609375 0 
L 37.796875 0 
L 37.796875 17.1875 
L 4.890625 17.1875 
L 4.890625 26.703125 
z
" id="DejaVuSans-52"/>
      </defs>
      <g transform="translate(294.554397 332.318437)scale(0.1 -0.1)">
       <use xlink:href="#DejaVuSans-52"/>
       <use x="63.623047" xlink:href="#DejaVuSans-51"/>
      </g>
     </g>
    </g>
    <g id="xtick_11">
     <g id="line2d_11">
      <g>
       <use style="stroke:#000000;stroke-width:0.8;" x="323.781655" xlink:href="#m1c63c457c6" y="317.72"/>
      </g>
     </g>
     <g id="text_11">
      <!-- 47 -->
      <g transform="translate(317.419155 332.318437)scale(0.1 -0.1)">
       <use xlink:href="#DejaVuSans-52"/>
       <use x="63.623047" xlink:href="#DejaVuSans-55"/>
      </g>
     </g>
    </g>
    <g id="xtick_12">
     <g id="line2d_12">
      <g>
       <use style="stroke:#000000;stroke-width:0.8;" x="363.794983" xlink:href="#m1c63c457c6" y="317.72"/>
      </g>
     </g>
     <g id="text_12">
      <!-- 54 -->
      <g transform="translate(357.432483 332.318437)scale(0.1 -0.1)">
       <use xlink:href="#DejaVuSans-53"/>
       <use x="63.623047" xlink:href="#DejaVuSans-52"/>
      </g>
     </g>
    </g>
    <g id="xtick_13">
     <g id="line2d_13">
      <g>
       <use style="stroke:#000000;stroke-width:0.8;" x="386.659742" xlink:href="#m1c63c457c6" y="317.72"/>
      </g>
     </g>
     <g id="text_13">
      <!-- 58 -->
      <g transform="translate(380.297242 332.318437)scale(0.1 -0.1)">
       <use xlink:href="#DejaVuSans-53"/>
       <use x="63.623047" xlink:href="#DejaVuSans-56"/>
      </g>
     </g>
    </g>
    <g id="xtick_14">
     <g id="line2d_14">
      <g>
       <use style="stroke:#000000;stroke-width:0.8;" x="409.524501" xlink:href="#m1c63c457c6" y="317.72"/>
      </g>
     </g>
     <g id="text_14">
      <!-- 62 -->
      <g transform="translate(403.162001 332.318437)scale(0.1 -0.1)">
       <use xlink:href="#DejaVuSans-54"/>
       <use x="63.623047" xlink:href="#DejaVuSans-50"/>
      </g>
     </g>
    </g>
    <g id="xtick_15">
     <g id="line2d_15">
      <g>
       <use style="stroke:#000000;stroke-width:0.8;" x="432.389259" xlink:href="#m1c63c457c6" y="317.72"/>
      </g>
     </g>
     <g id="text_15">
      <!-- 66 -->
      <g transform="translate(426.026759 332.318437)scale(0.1 -0.1)">
       <use xlink:href="#DejaVuSans-54"/>
       <use x="63.623047" xlink:href="#DejaVuSans-54"/>
      </g>
     </g>
    </g>
   </g>
   <g id="matplotlib.axis_2">
    <g id="ytick_1">
     <g id="line2d_16">
      <defs>
       <path d="M 0 0 
L -3.5 0 
" id="md025ea1694" style="stroke:#000000;stroke-width:0.8;"/>
      </defs>
      <g>
       <use style="stroke:#000000;stroke-width:0.8;" x="40.03" xlink:href="#md025ea1694" y="317.72"/>
      </g>
     </g>
     <g id="text_16">
      <!-- 0.00 -->
      <defs>
       <path d="M 31.78125 66.40625 
Q 24.171875 66.40625 20.328125 58.90625 
Q 16.5 51.421875 16.5 36.375 
Q 16.5 21.390625 20.328125 13.890625 
Q 24.171875 6.390625 31.78125 6.390625 
Q 39.453125 6.390625 43.28125 13.890625 
Q 47.125 21.390625 47.125 36.375 
Q 47.125 51.421875 43.28125 58.90625 
Q 39.453125 66.40625 31.78125 66.40625 
z
M 31.78125 74.21875 
Q 44.046875 74.21875 50.515625 64.515625 
Q 56.984375 54.828125 56.984375 36.375 
Q 56.984375 17.96875 50.515625 8.265625 
Q 44.046875 -1.421875 31.78125 -1.421875 
Q 19.53125 -1.421875 13.0625 8.265625 
Q 6.59375 17.96875 6.59375 36.375 
Q 6.59375 54.828125 13.0625 64.515625 
Q 19.53125 74.21875 31.78125 74.21875 
z
" id="DejaVuSans-48"/>
       <path d="M 10.6875 12.40625 
L 21 12.40625 
L 21 0 
L 10.6875 0 
z
" id="DejaVuSans-46"/>
      </defs>
      <g transform="translate(10.764375 321.519219)scale(0.1 -0.1)">
       <use xlink:href="#DejaVuSans-48"/>
       <use x="63.623047" xlink:href="#DejaVuSans-46"/>
       <use x="95.410156" xlink:href="#DejaVuSans-48"/>
       <use x="159.033203" xlink:href="#DejaVuSans-48"/>
      </g>
     </g>
    </g>
    <g id="ytick_2">
     <g id="line2d_17">
      <g>
       <use style="stroke:#000000;stroke-width:0.8;" x="40.03" xlink:href="#md025ea1694" y="286.580579"/>
      </g>
     </g>
     <g id="text_17">
      <!-- 0.02 -->
      <g transform="translate(10.764375 290.379797)scale(0.1 -0.1)">
       <use xlink:href="#DejaVuSans-48"/>
       <use x="63.623047" xlink:href="#DejaVuSans-46"/>
       <use x="95.410156" xlink:href="#DejaVuSans-48"/>
       <use x="159.033203" xlink:href="#DejaVuSans-50"/>
      </g>
     </g>
    </g>
    <g id="ytick_3">
     <g id="line2d_18">
      <g>
       <use style="stroke:#000000;stroke-width:0.8;" x="40.03" xlink:href="#md025ea1694" y="255.441157"/>
      </g>
     </g>
     <g id="text_18">
      <!-- 0.04 -->
      <g transform="translate(10.764375 259.240376)scale(0.1 -0.1)">
       <use xlink:href="#DejaVuSans-48"/>
       <use x="63.623047" xlink:href="#DejaVuSans-46"/>
       <use x="95.410156" xlink:href="#DejaVuSans-48"/>
       <use x="159.033203" xlink:href="#DejaVuSans-52"/>
      </g>
     </g>
    </g>
    <g id="ytick_4">
     <g id="line2d_19">
      <g>
       <use style="stroke:#000000;stroke-width:0.8;" x="40.03" xlink:href="#md025ea1694" y="224.301736"/>
      </g>
     </g>
     <g id="text_19">
      <!-- 0.06 -->
      <g transform="translate(10.764375 228.100955)scale(0.1 -0.1)">
       <use xlink:href="#DejaVuSans-48"/>
       <use x="63.623047" xlink:href="#DejaVuSans-46"/>
       <use x="95.410156" xlink:href="#DejaVuSans-48"/>
       <use x="159.033203" xlink:href="#DejaVuSans-54"/>
      </g>
     </g>
    </g>
    <g id="ytick_5">
     <g id="line2d_20">
      <g>
       <use style="stroke:#000000;stroke-width:0.8;" x="40.03" xlink:href="#md025ea1694" y="193.162314"/>
      </g>
     </g>
     <g id="text_20">
      <!-- 0.08 -->
      <g transform="translate(10.764375 196.961533)scale(0.1 -0.1)">
       <use xlink:href="#DejaVuSans-48"/>
       <use x="63.623047" xlink:href="#DejaVuSans-46"/>
       <use x="95.410156" xlink:href="#DejaVuSans-48"/>
       <use x="159.033203" xlink:href="#DejaVuSans-56"/>
      </g>
     </g>
    </g>
    <g id="ytick_6">
     <g id="line2d_21">
      <g>
       <use style="stroke:#000000;stroke-width:0.8;" x="40.03" xlink:href="#md025ea1694" y="162.022893"/>
      </g>
     </g>
     <g id="text_21">
      <!-- 0.10 -->
      <g transform="translate(10.764375 165.822112)scale(0.1 -0.1)">
       <use xlink:href="#DejaVuSans-48"/>
       <use x="63.623047" xlink:href="#DejaVuSans-46"/>
       <use x="95.410156" xlink:href="#DejaVuSans-49"/>
       <use x="159.033203" xlink:href="#DejaVuSans-48"/>
      </g>
     </g>
    </g>
    <g id="ytick_7">
     <g id="line2d_22">
      <g>
       <use style="stroke:#000000;stroke-width:0.8;" x="40.03" xlink:href="#md025ea1694" y="130.883472"/>
      </g>
     </g>
     <g id="text_22">
      <!-- 0.12 -->
      <g transform="translate(10.764375 134.68269)scale(0.1 -0.1)">
       <use xlink:href="#DejaVuSans-48"/>
       <use x="63.623047" xlink:href="#DejaVuSans-46"/>
       <use x="95.410156" xlink:href="#DejaVuSans-49"/>
       <use x="159.033203" xlink:href="#DejaVuSans-50"/>
      </g>
     </g>
    </g>
    <g id="ytick_8">
     <g id="line2d_23">
      <g>
       <use style="stroke:#000000;stroke-width:0.8;" x="40.03" xlink:href="#md025ea1694" y="99.74405"/>
      </g>
     </g>
     <g id="text_23">
      <!-- 0.14 -->
      <g transform="translate(10.764375 103.543269)scale(0.1 -0.1)">
       <use xlink:href="#DejaVuSans-48"/>
       <use x="63.623047" xlink:href="#DejaVuSans-46"/>
       <use x="95.410156" xlink:href="#DejaVuSans-49"/>
       <use x="159.033203" xlink:href="#DejaVuSans-52"/>
      </g>
     </g>
    </g>
    <g id="ytick_9">
     <g id="line2d_24">
      <g>
       <use style="stroke:#000000;stroke-width:0.8;" x="40.03" xlink:href="#md025ea1694" y="68.604629"/>
      </g>
     </g>
     <g id="text_24">
      <!-- 0.16 -->
      <g transform="translate(10.764375 72.403848)scale(0.1 -0.1)">
       <use xlink:href="#DejaVuSans-48"/>
       <use x="63.623047" xlink:href="#DejaVuSans-46"/>
       <use x="95.410156" xlink:href="#DejaVuSans-49"/>
       <use x="159.033203" xlink:href="#DejaVuSans-54"/>
      </g>
     </g>
    </g>
   </g>
   <g id="line2d_25">
    <defs>
     <path d="M -3 3 
L 3 -3 
M -3 -3 
L 3 3 
" id="m86d6393c84" style="stroke:#ff0000;"/>
    </defs>
    <g clip-path="url(#p08316caf05)">
     <use style="fill:#ff0000;stroke:#ff0000;" x="60.83693" xlink:href="#m86d6393c84" y="317.72"/>
     <use style="fill:#ff0000;stroke:#ff0000;" x="66.55312" xlink:href="#m86d6393c84" y="317.72"/>
     <use style="fill:#ff0000;stroke:#ff0000;" x="72.26931" xlink:href="#m86d6393c84" y="317.72"/>
     <use style="fill:#ff0000;stroke:#ff0000;" x="83.701689" xlink:href="#m86d6393c84" y="317.72"/>
     <use style="fill:#ff0000;stroke:#ff0000;" x="89.417879" xlink:href="#m86d6393c84" y="317.72"/>
     <use style="fill:#ff0000;stroke:#ff0000;" x="95.134068" xlink:href="#m86d6393c84" y="317.72"/>
     <use style="fill:#ff0000;stroke:#ff0000;" x="106.566448" xlink:href="#m86d6393c84" y="317.72"/>
     <use style="fill:#ff0000;stroke:#ff0000;" x="112.282637" xlink:href="#m86d6393c84" y="317.72"/>
     <use style="fill:#ff0000;stroke:#ff0000;" x="117.998827" xlink:href="#m86d6393c84" y="317.72"/>
     <use style="fill:#ff0000;stroke:#ff0000;" x="129.431207" xlink:href="#m86d6393c84" y="317.72"/>
     <use style="fill:#ff0000;stroke:#ff0000;" x="135.147396" xlink:href="#m86d6393c84" y="317.72"/>
     <use style="fill:#ff0000;stroke:#ff0000;" x="140.863586" xlink:href="#m86d6393c84" y="317.72"/>
     <use style="fill:#ff0000;stroke:#ff0000;" x="152.295965" xlink:href="#m86d6393c84" y="317.72"/>
     <use style="fill:#ff0000;stroke:#ff0000;" x="158.012155" xlink:href="#m86d6393c84" y="317.72"/>
     <use style="fill:#ff0000;stroke:#ff0000;" x="163.728345" xlink:href="#m86d6393c84" y="317.72"/>
     <use style="fill:#ff0000;stroke:#ff0000;" x="175.160724" xlink:href="#m86d6393c84" y="317.72"/>
     <use style="fill:#ff0000;stroke:#ff0000;" x="180.876914" xlink:href="#m86d6393c84" y="317.72"/>
     <use style="fill:#ff0000;stroke:#ff0000;" x="198.025483" xlink:href="#m86d6393c84" y="317.72"/>
     <use style="fill:#ff0000;stroke:#ff0000;" x="215.174052" xlink:href="#m86d6393c84" y="317.72"/>
     <use style="fill:#ff0000;stroke:#ff0000;" x="220.890241" xlink:href="#m86d6393c84" y="317.72"/>
     <use style="fill:#ff0000;stroke:#ff0000;" x="226.606431" xlink:href="#m86d6393c84" y="317.72"/>
     <use style="fill:#ff0000;stroke:#ff0000;" x="238.03881" xlink:href="#m86d6393c84" y="317.72"/>
     <use style="fill:#ff0000;stroke:#ff0000;" x="243.755" xlink:href="#m86d6393c84" y="317.72"/>
     <use style="fill:#ff0000;stroke:#ff0000;" x="249.47119" xlink:href="#m86d6393c84" y="317.72"/>
     <use style="fill:#ff0000;stroke:#ff0000;" x="266.619759" xlink:href="#m86d6393c84" y="317.72"/>
     <use style="fill:#ff0000;stroke:#ff0000;" x="283.768328" xlink:href="#m86d6393c84" y="317.72"/>
     <use style="fill:#ff0000;stroke:#ff0000;" x="300.916897" xlink:href="#m86d6393c84" y="317.72"/>
     <use style="fill:#ff0000;stroke:#ff0000;" x="306.633086" xlink:href="#m86d6393c84" y="317.72"/>
     <use style="fill:#ff0000;stroke:#ff0000;" x="312.349276" xlink:href="#m86d6393c84" y="317.72"/>
     <use style="fill:#ff0000;stroke:#ff0000;" x="323.781655" xlink:href="#m86d6393c84" y="317.72"/>
     <use style="fill:#ff0000;stroke:#ff0000;" x="329.497845" xlink:href="#m86d6393c84" y="317.72"/>
     <use style="fill:#ff0000;stroke:#ff0000;" x="346.646414" xlink:href="#m86d6393c84" y="317.72"/>
     <use style="fill:#ff0000;stroke:#ff0000;" x="369.511173" xlink:href="#m86d6393c84" y="317.72"/>
     <use style="fill:#ff0000;stroke:#ff0000;" x="375.227363" xlink:href="#m86d6393c84" y="317.72"/>
     <use style="fill:#ff0000;stroke:#ff0000;" x="386.659742" xlink:href="#m86d6393c84" y="317.72"/>
     <use style="fill:#ff0000;stroke:#ff0000;" x="392.375932" xlink:href="#m86d6393c84" y="317.72"/>
     <use style="fill:#ff0000;stroke:#ff0000;" x="398.092121" xlink:href="#m86d6393c84" y="317.72"/>
     <use style="fill:#ff0000;stroke:#ff0000;" x="409.524501" xlink:href="#m86d6393c84" y="317.72"/>
     <use style="fill:#ff0000;stroke:#ff0000;" x="415.24069" xlink:href="#m86d6393c84" y="317.72"/>
     <use style="fill:#ff0000;stroke:#ff0000;" x="420.95688" xlink:href="#m86d6393c84" y="317.72"/>
    </g>
   </g>
   <g id="line2d_26">
    <defs>
     <path d="M 0 -3 
L -0.673542 -0.927051 
L -2.85317 -0.927051 
L -1.089814 0.354102 
L -1.763356 2.427051 
L -0 1.145898 
L 1.763356 2.427051 
L 1.089814 0.354102 
L 2.85317 -0.927051 
L 0.673542 -0.927051 
z
" id="m717a38286d" style="stroke:#bfbf00;stroke-linejoin:bevel;"/>
    </defs>
    <g clip-path="url(#p08316caf05)">
     <use style="fill:#bfbf00;stroke:#bfbf00;stroke-linejoin:bevel;" x="77.985499" xlink:href="#m717a38286d" y="292.942868"/>
     <use style="fill:#bfbf00;stroke:#bfbf00;stroke-linejoin:bevel;" x="100.850258" xlink:href="#m717a38286d" y="305.390349"/>
     <use style="fill:#bfbf00;stroke:#bfbf00;stroke-linejoin:bevel;" x="123.715017" xlink:href="#m717a38286d" y="292.983343"/>
     <use style="fill:#bfbf00;stroke:#bfbf00;stroke-linejoin:bevel;" x="146.579776" xlink:href="#m717a38286d" y="296.23045"/>
     <use style="fill:#bfbf00;stroke:#bfbf00;stroke-linejoin:bevel;" x="169.444534" xlink:href="#m717a38286d" y="288.040798"/>
     <use style="fill:#bfbf00;stroke:#bfbf00;stroke-linejoin:bevel;" x="186.593103" xlink:href="#m717a38286d" y="146.042654"/>
     <use style="fill:#bfbf00;stroke:#bfbf00;stroke-linejoin:bevel;" x="192.309293" xlink:href="#m717a38286d" y="304.963297"/>
     <use style="fill:#bfbf00;stroke:#bfbf00;stroke-linejoin:bevel;" x="203.741672" xlink:href="#m717a38286d" y="145.668445"/>
     <use style="fill:#bfbf00;stroke:#bfbf00;stroke-linejoin:bevel;" x="209.457862" xlink:href="#m717a38286d" y="305.306768"/>
     <use style="fill:#bfbf00;stroke:#bfbf00;stroke-linejoin:bevel;" x="232.322621" xlink:href="#m717a38286d" y="305.034474"/>
     <use style="fill:#bfbf00;stroke:#bfbf00;stroke-linejoin:bevel;" x="255.187379" xlink:href="#m717a38286d" y="303.933591"/>
     <use style="fill:#bfbf00;stroke:#bfbf00;stroke-linejoin:bevel;" x="260.903569" xlink:href="#m717a38286d" y="306.488285"/>
     <use style="fill:#bfbf00;stroke:#bfbf00;stroke-linejoin:bevel;" x="272.335948" xlink:href="#m717a38286d" y="143.96497"/>
     <use style="fill:#bfbf00;stroke:#bfbf00;stroke-linejoin:bevel;" x="278.052138" xlink:href="#m717a38286d" y="306.490142"/>
     <use style="fill:#bfbf00;stroke:#bfbf00;stroke-linejoin:bevel;" x="289.484517" xlink:href="#m717a38286d" y="144.320144"/>
     <use style="fill:#bfbf00;stroke:#bfbf00;stroke-linejoin:bevel;" x="295.200707" xlink:href="#m717a38286d" y="306.51259"/>
     <use style="fill:#bfbf00;stroke:#bfbf00;stroke-linejoin:bevel;" x="318.065466" xlink:href="#m717a38286d" y="302.867432"/>
     <use style="fill:#bfbf00;stroke:#bfbf00;stroke-linejoin:bevel;" x="335.214035" xlink:href="#m717a38286d" y="54.992381"/>
     <use style="fill:#bfbf00;stroke:#bfbf00;stroke-linejoin:bevel;" x="340.930224" xlink:href="#m717a38286d" y="295.668302"/>
     <use style="fill:#bfbf00;stroke:#bfbf00;stroke-linejoin:bevel;" x="352.362604" xlink:href="#m717a38286d" y="62.41726"/>
     <use style="fill:#bfbf00;stroke:#bfbf00;stroke-linejoin:bevel;" x="358.078793" xlink:href="#m717a38286d" y="295.566568"/>
     <use style="fill:#bfbf00;stroke:#bfbf00;stroke-linejoin:bevel;" x="363.794983" xlink:href="#m717a38286d" y="285.57299"/>
     <use style="fill:#bfbf00;stroke:#bfbf00;stroke-linejoin:bevel;" x="380.943552" xlink:href="#m717a38286d" y="304.761339"/>
     <use style="fill:#bfbf00;stroke:#bfbf00;stroke-linejoin:bevel;" x="403.808311" xlink:href="#m717a38286d" y="293.731711"/>
     <use style="fill:#bfbf00;stroke:#bfbf00;stroke-linejoin:bevel;" x="426.67307" xlink:href="#m717a38286d" y="296.137781"/>
    </g>
   </g>
   <g id="patch_68">
    <path d="M 40.03 317.72 
L 40.03 41.856 
" style="fill:none;stroke:#000000;stroke-linecap:square;stroke-linejoin:miter;stroke-width:0.8;"/>
   </g>
   <g id="patch_69">
    <path d="M 447.48 317.72 
L 447.48 41.856 
" style="fill:none;stroke:#000000;stroke-linecap:square;stroke-linejoin:miter;stroke-width:0.8;"/>
   </g>
   <g id="patch_70">
    <path d="M 40.03 317.72 
L 447.48 317.72 
" style="fill:none;stroke:#000000;stroke-linecap:square;stroke-linejoin:miter;stroke-width:0.8;"/>
   </g>
   <g id="patch_71">
    <path d="M 40.03 41.856 
L 447.48 41.856 
" style="fill:none;stroke:#000000;stroke-linecap:square;stroke-linejoin:miter;stroke-width:0.8;"/>
   </g>
   <g id="text_25">
    <!-- Feature selection packet loss and latency.  -->
    <defs>
     <path d="M 9.8125 72.90625 
L 51.703125 72.90625 
L 51.703125 64.59375 
L 19.671875 64.59375 
L 19.671875 43.109375 
L 48.578125 43.109375 
L 48.578125 34.8125 
L 19.671875 34.8125 
L 19.671875 0 
L 9.8125 0 
z
" id="DejaVuSans-70"/>
     <path d="M 56.203125 29.59375 
L 56.203125 25.203125 
L 14.890625 25.203125 
Q 15.484375 15.921875 20.484375 11.0625 
Q 25.484375 6.203125 34.421875 6.203125 
Q 39.59375 6.203125 44.453125 7.46875 
Q 49.3125 8.734375 54.109375 11.28125 
L 54.109375 2.78125 
Q 49.265625 0.734375 44.1875 -0.34375 
Q 39.109375 -1.421875 33.890625 -1.421875 
Q 20.796875 -1.421875 13.15625 6.1875 
Q 5.515625 13.8125 5.515625 26.8125 
Q 5.515625 40.234375 12.765625 48.109375 
Q 20.015625 56 32.328125 56 
Q 43.359375 56 49.78125 48.890625 
Q 56.203125 41.796875 56.203125 29.59375 
z
M 47.21875 32.234375 
Q 47.125 39.59375 43.09375 43.984375 
Q 39.0625 48.390625 32.421875 48.390625 
Q 24.90625 48.390625 20.390625 44.140625 
Q 15.875 39.890625 15.1875 32.171875 
z
" id="DejaVuSans-101"/>
     <path d="M 34.28125 27.484375 
Q 23.390625 27.484375 19.1875 25 
Q 14.984375 22.515625 14.984375 16.5 
Q 14.984375 11.71875 18.140625 8.90625 
Q 21.296875 6.109375 26.703125 6.109375 
Q 34.1875 6.109375 38.703125 11.40625 
Q 43.21875 16.703125 43.21875 25.484375 
L 43.21875 27.484375 
z
M 52.203125 31.203125 
L 52.203125 0 
L 43.21875 0 
L 43.21875 8.296875 
Q 40.140625 3.328125 35.546875 0.953125 
Q 30.953125 -1.421875 24.3125 -1.421875 
Q 15.921875 -1.421875 10.953125 3.296875 
Q 6 8.015625 6 15.921875 
Q 6 25.140625 12.171875 29.828125 
Q 18.359375 34.515625 30.609375 34.515625 
L 43.21875 34.515625 
L 43.21875 35.40625 
Q 43.21875 41.609375 39.140625 45 
Q 35.0625 48.390625 27.6875 48.390625 
Q 23 48.390625 18.546875 47.265625 
Q 14.109375 46.140625 10.015625 43.890625 
L 10.015625 52.203125 
Q 14.9375 54.109375 19.578125 55.046875 
Q 24.21875 56 28.609375 56 
Q 40.484375 56 46.34375 49.84375 
Q 52.203125 43.703125 52.203125 31.203125 
z
" id="DejaVuSans-97"/>
     <path d="M 18.3125 70.21875 
L 18.3125 54.6875 
L 36.8125 54.6875 
L 36.8125 47.703125 
L 18.3125 47.703125 
L 18.3125 18.015625 
Q 18.3125 11.328125 20.140625 9.421875 
Q 21.96875 7.515625 27.59375 7.515625 
L 36.8125 7.515625 
L 36.8125 0 
L 27.59375 0 
Q 17.1875 0 13.234375 3.875 
Q 9.28125 7.765625 9.28125 18.015625 
L 9.28125 47.703125 
L 2.6875 47.703125 
L 2.6875 54.6875 
L 9.28125 54.6875 
L 9.28125 70.21875 
z
" id="DejaVuSans-116"/>
     <path d="M 8.5 21.578125 
L 8.5 54.6875 
L 17.484375 54.6875 
L 17.484375 21.921875 
Q 17.484375 14.15625 20.5 10.265625 
Q 23.53125 6.390625 29.59375 6.390625 
Q 36.859375 6.390625 41.078125 11.03125 
Q 45.3125 15.671875 45.3125 23.6875 
L 45.3125 54.6875 
L 54.296875 54.6875 
L 54.296875 0 
L 45.3125 0 
L 45.3125 8.40625 
Q 42.046875 3.421875 37.71875 1 
Q 33.40625 -1.421875 27.6875 -1.421875 
Q 18.265625 -1.421875 13.375 4.4375 
Q 8.5 10.296875 8.5 21.578125 
z
M 31.109375 56 
z
" id="DejaVuSans-117"/>
     <path d="M 41.109375 46.296875 
Q 39.59375 47.171875 37.8125 47.578125 
Q 36.03125 48 33.890625 48 
Q 26.265625 48 22.1875 43.046875 
Q 18.109375 38.09375 18.109375 28.8125 
L 18.109375 0 
L 9.078125 0 
L 9.078125 54.6875 
L 18.109375 54.6875 
L 18.109375 46.1875 
Q 20.953125 51.171875 25.484375 53.578125 
Q 30.03125 56 36.53125 56 
Q 37.453125 56 38.578125 55.875 
Q 39.703125 55.765625 41.0625 55.515625 
z
" id="DejaVuSans-114"/>
     <path id="DejaVuSans-32"/>
     <path d="M 44.28125 53.078125 
L 44.28125 44.578125 
Q 40.484375 46.53125 36.375 47.5 
Q 32.28125 48.484375 27.875 48.484375 
Q 21.1875 48.484375 17.84375 46.4375 
Q 14.5 44.390625 14.5 40.28125 
Q 14.5 37.15625 16.890625 35.375 
Q 19.28125 33.59375 26.515625 31.984375 
L 29.59375 31.296875 
Q 39.15625 29.25 43.1875 25.515625 
Q 47.21875 21.78125 47.21875 15.09375 
Q 47.21875 7.46875 41.1875 3.015625 
Q 35.15625 -1.421875 24.609375 -1.421875 
Q 20.21875 -1.421875 15.453125 -0.5625 
Q 10.6875 0.296875 5.421875 2 
L 5.421875 11.28125 
Q 10.40625 8.6875 15.234375 7.390625 
Q 20.0625 6.109375 24.8125 6.109375 
Q 31.15625 6.109375 34.5625 8.28125 
Q 37.984375 10.453125 37.984375 14.40625 
Q 37.984375 18.0625 35.515625 20.015625 
Q 33.0625 21.96875 24.703125 23.78125 
L 21.578125 24.515625 
Q 13.234375 26.265625 9.515625 29.90625 
Q 5.8125 33.546875 5.8125 39.890625 
Q 5.8125 47.609375 11.28125 51.796875 
Q 16.75 56 26.8125 56 
Q 31.78125 56 36.171875 55.265625 
Q 40.578125 54.546875 44.28125 53.078125 
z
" id="DejaVuSans-115"/>
     <path d="M 9.421875 75.984375 
L 18.40625 75.984375 
L 18.40625 0 
L 9.421875 0 
z
" id="DejaVuSans-108"/>
     <path d="M 48.78125 52.59375 
L 48.78125 44.1875 
Q 44.96875 46.296875 41.140625 47.34375 
Q 37.3125 48.390625 33.40625 48.390625 
Q 24.65625 48.390625 19.8125 42.84375 
Q 14.984375 37.3125 14.984375 27.296875 
Q 14.984375 17.28125 19.8125 11.734375 
Q 24.65625 6.203125 33.40625 6.203125 
Q 37.3125 6.203125 41.140625 7.25 
Q 44.96875 8.296875 48.78125 10.40625 
L 48.78125 2.09375 
Q 45.015625 0.34375 40.984375 -0.53125 
Q 36.96875 -1.421875 32.421875 -1.421875 
Q 20.0625 -1.421875 12.78125 6.34375 
Q 5.515625 14.109375 5.515625 27.296875 
Q 5.515625 40.671875 12.859375 48.328125 
Q 20.21875 56 33.015625 56 
Q 37.15625 56 41.109375 55.140625 
Q 45.0625 54.296875 48.78125 52.59375 
z
" id="DejaVuSans-99"/>
     <path d="M 9.421875 54.6875 
L 18.40625 54.6875 
L 18.40625 0 
L 9.421875 0 
z
M 9.421875 75.984375 
L 18.40625 75.984375 
L 18.40625 64.59375 
L 9.421875 64.59375 
z
" id="DejaVuSans-105"/>
     <path d="M 30.609375 48.390625 
Q 23.390625 48.390625 19.1875 42.75 
Q 14.984375 37.109375 14.984375 27.296875 
Q 14.984375 17.484375 19.15625 11.84375 
Q 23.34375 6.203125 30.609375 6.203125 
Q 37.796875 6.203125 41.984375 11.859375 
Q 46.1875 17.53125 46.1875 27.296875 
Q 46.1875 37.015625 41.984375 42.703125 
Q 37.796875 48.390625 30.609375 48.390625 
z
M 30.609375 56 
Q 42.328125 56 49.015625 48.375 
Q 55.71875 40.765625 55.71875 27.296875 
Q 55.71875 13.875 49.015625 6.21875 
Q 42.328125 -1.421875 30.609375 -1.421875 
Q 18.84375 -1.421875 12.171875 6.21875 
Q 5.515625 13.875 5.515625 27.296875 
Q 5.515625 40.765625 12.171875 48.375 
Q 18.84375 56 30.609375 56 
z
" id="DejaVuSans-111"/>
     <path d="M 54.890625 33.015625 
L 54.890625 0 
L 45.90625 0 
L 45.90625 32.71875 
Q 45.90625 40.484375 42.875 44.328125 
Q 39.84375 48.1875 33.796875 48.1875 
Q 26.515625 48.1875 22.3125 43.546875 
Q 18.109375 38.921875 18.109375 30.90625 
L 18.109375 0 
L 9.078125 0 
L 9.078125 54.6875 
L 18.109375 54.6875 
L 18.109375 46.1875 
Q 21.34375 51.125 25.703125 53.5625 
Q 30.078125 56 35.796875 56 
Q 45.21875 56 50.046875 50.171875 
Q 54.890625 44.34375 54.890625 33.015625 
z
" id="DejaVuSans-110"/>
     <path d="M 18.109375 8.203125 
L 18.109375 -20.796875 
L 9.078125 -20.796875 
L 9.078125 54.6875 
L 18.109375 54.6875 
L 18.109375 46.390625 
Q 20.953125 51.265625 25.265625 53.625 
Q 29.59375 56 35.59375 56 
Q 45.5625 56 51.78125 48.09375 
Q 58.015625 40.1875 58.015625 27.296875 
Q 58.015625 14.40625 51.78125 6.484375 
Q 45.5625 -1.421875 35.59375 -1.421875 
Q 29.59375 -1.421875 25.265625 0.953125 
Q 20.953125 3.328125 18.109375 8.203125 
z
M 48.6875 27.296875 
Q 48.6875 37.203125 44.609375 42.84375 
Q 40.53125 48.484375 33.40625 48.484375 
Q 26.265625 48.484375 22.1875 42.84375 
Q 18.109375 37.203125 18.109375 27.296875 
Q 18.109375 17.390625 22.1875 11.75 
Q 26.265625 6.109375 33.40625 6.109375 
Q 40.53125 6.109375 44.609375 11.75 
Q 48.6875 17.390625 48.6875 27.296875 
z
" id="DejaVuSans-112"/>
     <path d="M 9.078125 75.984375 
L 18.109375 75.984375 
L 18.109375 31.109375 
L 44.921875 54.6875 
L 56.390625 54.6875 
L 27.390625 29.109375 
L 57.625 0 
L 45.90625 0 
L 18.109375 26.703125 
L 18.109375 0 
L 9.078125 0 
z
" id="DejaVuSans-107"/>
     <path d="M 45.40625 46.390625 
L 45.40625 75.984375 
L 54.390625 75.984375 
L 54.390625 0 
L 45.40625 0 
L 45.40625 8.203125 
Q 42.578125 3.328125 38.25 0.953125 
Q 33.9375 -1.421875 27.875 -1.421875 
Q 17.96875 -1.421875 11.734375 6.484375 
Q 5.515625 14.40625 5.515625 27.296875 
Q 5.515625 40.1875 11.734375 48.09375 
Q 17.96875 56 27.875 56 
Q 33.9375 56 38.25 53.625 
Q 42.578125 51.265625 45.40625 46.390625 
z
M 14.796875 27.296875 
Q 14.796875 17.390625 18.875 11.75 
Q 22.953125 6.109375 30.078125 6.109375 
Q 37.203125 6.109375 41.296875 11.75 
Q 45.40625 17.390625 45.40625 27.296875 
Q 45.40625 37.203125 41.296875 42.84375 
Q 37.203125 48.484375 30.078125 48.484375 
Q 22.953125 48.484375 18.875 42.84375 
Q 14.796875 37.203125 14.796875 27.296875 
z
" id="DejaVuSans-100"/>
     <path d="M 32.171875 -5.078125 
Q 28.375 -14.84375 24.75 -17.8125 
Q 21.140625 -20.796875 15.09375 -20.796875 
L 7.90625 -20.796875 
L 7.90625 -13.28125 
L 13.1875 -13.28125 
Q 16.890625 -13.28125 18.9375 -11.515625 
Q 21 -9.765625 23.484375 -3.21875 
L 25.09375 0.875 
L 2.984375 54.6875 
L 12.5 54.6875 
L 29.59375 11.921875 
L 46.6875 54.6875 
L 56.203125 54.6875 
z
" id="DejaVuSans-121"/>
    </defs>
    <g transform="translate(115.106563 22.418625)scale(0.12 -0.12)">
     <use xlink:href="#DejaVuSans-70"/>
     <use x="57.441406" xlink:href="#DejaVuSans-101"/>
     <use x="118.964844" xlink:href="#DejaVuSans-97"/>
     <use x="180.244141" xlink:href="#DejaVuSans-116"/>
     <use x="219.453125" xlink:href="#DejaVuSans-117"/>
     <use x="282.832031" xlink:href="#DejaVuSans-114"/>
     <use x="323.914062" xlink:href="#DejaVuSans-101"/>
     <use x="385.4375" xlink:href="#DejaVuSans-32"/>
     <use x="417.224609" xlink:href="#DejaVuSans-115"/>
     <use x="469.324219" xlink:href="#DejaVuSans-101"/>
     <use x="530.847656" xlink:href="#DejaVuSans-108"/>
     <use x="558.630859" xlink:href="#DejaVuSans-101"/>
     <use x="620.154297" xlink:href="#DejaVuSans-99"/>
     <use x="675.134766" xlink:href="#DejaVuSans-116"/>
     <use x="714.34375" xlink:href="#DejaVuSans-105"/>
     <use x="742.126953" xlink:href="#DejaVuSans-111"/>
     <use x="803.308594" xlink:href="#DejaVuSans-110"/>
     <use x="866.6875" xlink:href="#DejaVuSans-32"/>
     <use x="898.474609" xlink:href="#DejaVuSans-112"/>
     <use x="961.951172" xlink:href="#DejaVuSans-97"/>
     <use x="1023.230469" xlink:href="#DejaVuSans-99"/>
     <use x="1078.210938" xlink:href="#DejaVuSans-107"/>
     <use x="1136.074219" xlink:href="#DejaVuSans-101"/>
     <use x="1197.597656" xlink:href="#DejaVuSans-116"/>
     <use x="1236.806641" xlink:href="#DejaVuSans-32"/>
     <use x="1268.59375" xlink:href="#DejaVuSans-108"/>
     <use x="1296.376953" xlink:href="#DejaVuSans-111"/>
     <use x="1357.558594" xlink:href="#DejaVuSans-115"/>
     <use x="1409.658203" xlink:href="#DejaVuSans-115"/>
     <use x="1461.757812" xlink:href="#DejaVuSans-32"/>
     <use x="1493.544922" xlink:href="#DejaVuSans-97"/>
     <use x="1554.824219" xlink:href="#DejaVuSans-110"/>
     <use x="1618.203125" xlink:href="#DejaVuSans-100"/>
     <use x="1681.679688" xlink:href="#DejaVuSans-32"/>
     <use x="1713.466797" xlink:href="#DejaVuSans-108"/>
     <use x="1741.25" xlink:href="#DejaVuSans-97"/>
     <use x="1802.529297" xlink:href="#DejaVuSans-116"/>
     <use x="1841.738281" xlink:href="#DejaVuSans-101"/>
     <use x="1903.261719" xlink:href="#DejaVuSans-110"/>
     <use x="1966.640625" xlink:href="#DejaVuSans-99"/>
     <use x="2021.621094" xlink:href="#DejaVuSans-121"/>
     <use x="2080.582031" xlink:href="#DejaVuSans-46"/>
     <use x="2112.369141" xlink:href="#DejaVuSans-32"/>
    </g>
    <!--  (gap in xtick represents one mote and its links) -->
    <defs>
     <path d="M 31 75.875 
Q 24.46875 64.65625 21.28125 53.65625 
Q 18.109375 42.671875 18.109375 31.390625 
Q 18.109375 20.125 21.3125 9.0625 
Q 24.515625 -2 31 -13.1875 
L 23.1875 -13.1875 
Q 15.875 -1.703125 12.234375 9.375 
Q 8.59375 20.453125 8.59375 31.390625 
Q 8.59375 42.28125 12.203125 53.3125 
Q 15.828125 64.359375 23.1875 75.875 
z
" id="DejaVuSans-40"/>
     <path d="M 45.40625 27.984375 
Q 45.40625 37.75 41.375 43.109375 
Q 37.359375 48.484375 30.078125 48.484375 
Q 22.859375 48.484375 18.828125 43.109375 
Q 14.796875 37.75 14.796875 27.984375 
Q 14.796875 18.265625 18.828125 12.890625 
Q 22.859375 7.515625 30.078125 7.515625 
Q 37.359375 7.515625 41.375 12.890625 
Q 45.40625 18.265625 45.40625 27.984375 
z
M 54.390625 6.78125 
Q 54.390625 -7.171875 48.1875 -13.984375 
Q 42 -20.796875 29.203125 -20.796875 
Q 24.46875 -20.796875 20.265625 -20.09375 
Q 16.0625 -19.390625 12.109375 -17.921875 
L 12.109375 -9.1875 
Q 16.0625 -11.328125 19.921875 -12.34375 
Q 23.78125 -13.375 27.78125 -13.375 
Q 36.625 -13.375 41.015625 -8.765625 
Q 45.40625 -4.15625 45.40625 5.171875 
L 45.40625 9.625 
Q 42.625 4.78125 38.28125 2.390625 
Q 33.9375 0 27.875 0 
Q 17.828125 0 11.671875 7.65625 
Q 5.515625 15.328125 5.515625 27.984375 
Q 5.515625 40.671875 11.671875 48.328125 
Q 17.828125 56 27.875 56 
Q 33.9375 56 38.28125 53.609375 
Q 42.625 51.21875 45.40625 46.390625 
L 45.40625 54.6875 
L 54.390625 54.6875 
z
" id="DejaVuSans-103"/>
     <path d="M 54.890625 54.6875 
L 35.109375 28.078125 
L 55.90625 0 
L 45.3125 0 
L 29.390625 21.484375 
L 13.484375 0 
L 2.875 0 
L 24.125 28.609375 
L 4.6875 54.6875 
L 15.28125 54.6875 
L 29.78125 35.203125 
L 44.28125 54.6875 
z
" id="DejaVuSans-120"/>
     <path d="M 52 44.1875 
Q 55.375 50.25 60.0625 53.125 
Q 64.75 56 71.09375 56 
Q 79.640625 56 84.28125 50.015625 
Q 88.921875 44.046875 88.921875 33.015625 
L 88.921875 0 
L 79.890625 0 
L 79.890625 32.71875 
Q 79.890625 40.578125 77.09375 44.375 
Q 74.3125 48.1875 68.609375 48.1875 
Q 61.625 48.1875 57.5625 43.546875 
Q 53.515625 38.921875 53.515625 30.90625 
L 53.515625 0 
L 44.484375 0 
L 44.484375 32.71875 
Q 44.484375 40.625 41.703125 44.40625 
Q 38.921875 48.1875 33.109375 48.1875 
Q 26.21875 48.1875 22.15625 43.53125 
Q 18.109375 38.875 18.109375 30.90625 
L 18.109375 0 
L 9.078125 0 
L 9.078125 54.6875 
L 18.109375 54.6875 
L 18.109375 46.1875 
Q 21.1875 51.21875 25.484375 53.609375 
Q 29.78125 56 35.6875 56 
Q 41.65625 56 45.828125 52.96875 
Q 50 49.953125 52 44.1875 
z
" id="DejaVuSans-109"/>
     <path d="M 8.015625 75.875 
L 15.828125 75.875 
Q 23.140625 64.359375 26.78125 53.3125 
Q 30.421875 42.28125 30.421875 31.390625 
Q 30.421875 20.453125 26.78125 9.375 
Q 23.140625 -1.703125 15.828125 -13.1875 
L 8.015625 -13.1875 
Q 14.5 -2 17.703125 9.0625 
Q 20.90625 20.125 20.90625 31.390625 
Q 20.90625 42.671875 17.703125 53.65625 
Q 14.5 64.65625 8.015625 75.875 
z
" id="DejaVuSans-41"/>
    </defs>
    <g transform="translate(99.688438 35.856)scale(0.12 -0.12)">
     <use xlink:href="#DejaVuSans-32"/>
     <use x="31.787109" xlink:href="#DejaVuSans-40"/>
     <use x="70.800781" xlink:href="#DejaVuSans-103"/>
     <use x="134.277344" xlink:href="#DejaVuSans-97"/>
     <use x="195.556641" xlink:href="#DejaVuSans-112"/>
     <use x="259.033203" xlink:href="#DejaVuSans-32"/>
     <use x="290.820312" xlink:href="#DejaVuSans-105"/>
     <use x="318.603516" xlink:href="#DejaVuSans-110"/>
     <use x="381.982422" xlink:href="#DejaVuSans-32"/>
     <use x="413.769531" xlink:href="#DejaVuSans-120"/>
     <use x="472.949219" xlink:href="#DejaVuSans-116"/>
     <use x="512.158203" xlink:href="#DejaVuSans-105"/>
     <use x="539.941406" xlink:href="#DejaVuSans-99"/>
     <use x="594.921875" xlink:href="#DejaVuSans-107"/>
     <use x="652.832031" xlink:href="#DejaVuSans-32"/>
     <use x="684.619141" xlink:href="#DejaVuSans-114"/>
     <use x="725.701172" xlink:href="#DejaVuSans-101"/>
     <use x="787.224609" xlink:href="#DejaVuSans-112"/>
     <use x="850.701172" xlink:href="#DejaVuSans-114"/>
     <use x="891.783203" xlink:href="#DejaVuSans-101"/>
     <use x="953.306641" xlink:href="#DejaVuSans-115"/>
     <use x="1005.40625" xlink:href="#DejaVuSans-101"/>
     <use x="1066.929688" xlink:href="#DejaVuSans-110"/>
     <use x="1130.308594" xlink:href="#DejaVuSans-116"/>
     <use x="1169.517578" xlink:href="#DejaVuSans-115"/>
     <use x="1221.617188" xlink:href="#DejaVuSans-32"/>
     <use x="1253.404297" xlink:href="#DejaVuSans-111"/>
     <use x="1314.585938" xlink:href="#DejaVuSans-110"/>
     <use x="1377.964844" xlink:href="#DejaVuSans-101"/>
     <use x="1439.488281" xlink:href="#DejaVuSans-32"/>
     <use x="1471.275391" xlink:href="#DejaVuSans-109"/>
     <use x="1568.6875" xlink:href="#DejaVuSans-111"/>
     <use x="1629.869141" xlink:href="#DejaVuSans-116"/>
     <use x="1669.078125" xlink:href="#DejaVuSans-101"/>
     <use x="1730.601562" xlink:href="#DejaVuSans-32"/>
     <use x="1762.388672" xlink:href="#DejaVuSans-97"/>
     <use x="1823.667969" xlink:href="#DejaVuSans-110"/>
     <use x="1887.046875" xlink:href="#DejaVuSans-100"/>
     <use x="1950.523438" xlink:href="#DejaVuSans-32"/>
     <use x="1982.310547" xlink:href="#DejaVuSans-105"/>
     <use x="2010.09375" xlink:href="#DejaVuSans-116"/>
     <use x="2049.302734" xlink:href="#DejaVuSans-115"/>
     <use x="2101.402344" xlink:href="#DejaVuSans-32"/>
     <use x="2133.189453" xlink:href="#DejaVuSans-108"/>
     <use x="2160.972656" xlink:href="#DejaVuSans-105"/>
     <use x="2188.755859" xlink:href="#DejaVuSans-110"/>
     <use x="2252.134766" xlink:href="#DejaVuSans-107"/>
     <use x="2310.044922" xlink:href="#DejaVuSans-115"/>
     <use x="2362.144531" xlink:href="#DejaVuSans-41"/>
    </g>
   </g>
   <g id="legend_1">
    <g id="patch_72">
     <path d="M 47.03 149.956937 
L 217.362813 149.956937 
Q 219.362813 149.956937 219.362813 147.956937 
L 219.362813 48.856 
Q 219.362813 46.856 217.362813 46.856 
L 47.03 46.856 
Q 45.03 46.856 45.03 48.856 
L 45.03 147.956937 
Q 45.03 149.956937 47.03 149.956937 
z
" style="fill:#ffffff;opacity:0.8;stroke:#cccccc;stroke-linejoin:miter;"/>
    </g>
    <g id="line2d_27"/>
    <g id="line2d_28">
     <g>
      <use style="fill:#ff0000;stroke:#ff0000;" x="59.03" xlink:href="#m86d6393c84" y="54.954437"/>
     </g>
    </g>
    <g id="text_26">
     <!-- Not rejected by f_classif -->
     <defs>
      <path d="M 9.8125 72.90625 
L 23.09375 72.90625 
L 55.421875 11.921875 
L 55.421875 72.90625 
L 64.984375 72.90625 
L 64.984375 0 
L 51.703125 0 
L 19.390625 60.984375 
L 19.390625 0 
L 9.8125 0 
z
" id="DejaVuSans-78"/>
      <path d="M 9.421875 54.6875 
L 18.40625 54.6875 
L 18.40625 -0.984375 
Q 18.40625 -11.421875 14.421875 -16.109375 
Q 10.453125 -20.796875 1.609375 -20.796875 
L -1.8125 -20.796875 
L -1.8125 -13.1875 
L 0.59375 -13.1875 
Q 5.71875 -13.1875 7.5625 -10.8125 
Q 9.421875 -8.453125 9.421875 -0.984375 
z
M 9.421875 75.984375 
L 18.40625 75.984375 
L 18.40625 64.59375 
L 9.421875 64.59375 
z
" id="DejaVuSans-106"/>
      <path d="M 48.6875 27.296875 
Q 48.6875 37.203125 44.609375 42.84375 
Q 40.53125 48.484375 33.40625 48.484375 
Q 26.265625 48.484375 22.1875 42.84375 
Q 18.109375 37.203125 18.109375 27.296875 
Q 18.109375 17.390625 22.1875 11.75 
Q 26.265625 6.109375 33.40625 6.109375 
Q 40.53125 6.109375 44.609375 11.75 
Q 48.6875 17.390625 48.6875 27.296875 
z
M 18.109375 46.390625 
Q 20.953125 51.265625 25.265625 53.625 
Q 29.59375 56 35.59375 56 
Q 45.5625 56 51.78125 48.09375 
Q 58.015625 40.1875 58.015625 27.296875 
Q 58.015625 14.40625 51.78125 6.484375 
Q 45.5625 -1.421875 35.59375 -1.421875 
Q 29.59375 -1.421875 25.265625 0.953125 
Q 20.953125 3.328125 18.109375 8.203125 
L 18.109375 0 
L 9.078125 0 
L 9.078125 75.984375 
L 18.109375 75.984375 
z
" id="DejaVuSans-98"/>
      <path d="M 37.109375 75.984375 
L 37.109375 68.5 
L 28.515625 68.5 
Q 23.6875 68.5 21.796875 66.546875 
Q 19.921875 64.59375 19.921875 59.515625 
L 19.921875 54.6875 
L 34.71875 54.6875 
L 34.71875 47.703125 
L 19.921875 47.703125 
L 19.921875 0 
L 10.890625 0 
L 10.890625 47.703125 
L 2.296875 47.703125 
L 2.296875 54.6875 
L 10.890625 54.6875 
L 10.890625 58.5 
Q 10.890625 67.625 15.140625 71.796875 
Q 19.390625 75.984375 28.609375 75.984375 
z
" id="DejaVuSans-102"/>
      <path d="M 50.984375 -16.609375 
L 50.984375 -23.578125 
L -0.984375 -23.578125 
L -0.984375 -16.609375 
z
" id="DejaVuSans-95"/>
     </defs>
     <g transform="translate(77.03 58.454437)scale(0.1 -0.1)">
      <use xlink:href="#DejaVuSans-78"/>
      <use x="74.804688" xlink:href="#DejaVuSans-111"/>
      <use x="135.986328" xlink:href="#DejaVuSans-116"/>
      <use x="175.195312" xlink:href="#DejaVuSans-32"/>
      <use x="206.982422" xlink:href="#DejaVuSans-114"/>
      <use x="248.064453" xlink:href="#DejaVuSans-101"/>
      <use x="309.587891" xlink:href="#DejaVuSans-106"/>
      <use x="337.371094" xlink:href="#DejaVuSans-101"/>
      <use x="398.894531" xlink:href="#DejaVuSans-99"/>
      <use x="453.875" xlink:href="#DejaVuSans-116"/>
      <use x="493.083984" xlink:href="#DejaVuSans-101"/>
      <use x="554.607422" xlink:href="#DejaVuSans-100"/>
      <use x="618.083984" xlink:href="#DejaVuSans-32"/>
      <use x="649.871094" xlink:href="#DejaVuSans-98"/>
      <use x="713.347656" xlink:href="#DejaVuSans-121"/>
      <use x="772.527344" xlink:href="#DejaVuSans-32"/>
      <use x="804.314453" xlink:href="#DejaVuSans-102"/>
      <use x="839.519531" xlink:href="#DejaVuSans-95"/>
      <use x="889.519531" xlink:href="#DejaVuSans-99"/>
      <use x="944.5" xlink:href="#DejaVuSans-108"/>
      <use x="972.283203" xlink:href="#DejaVuSans-97"/>
      <use x="1033.5625" xlink:href="#DejaVuSans-115"/>
      <use x="1085.662109" xlink:href="#DejaVuSans-115"/>
      <use x="1137.761719" xlink:href="#DejaVuSans-105"/>
      <use x="1165.544922" xlink:href="#DejaVuSans-102"/>
     </g>
    </g>
    <g id="line2d_29"/>
    <g id="line2d_30">
     <g>
      <use style="fill:#bfbf00;stroke:#bfbf00;stroke-linejoin:bevel;" x="59.03" xlink:href="#m717a38286d" y="76.827562"/>
     </g>
    </g>
    <g id="text_27">
     <!-- Rejected by f_classif -->
     <defs>
      <path d="M 44.390625 34.1875 
Q 47.5625 33.109375 50.5625 29.59375 
Q 53.5625 26.078125 56.59375 19.921875 
L 66.609375 0 
L 56 0 
L 46.6875 18.703125 
Q 43.0625 26.03125 39.671875 28.421875 
Q 36.28125 30.8125 30.421875 30.8125 
L 19.671875 30.8125 
L 19.671875 0 
L 9.8125 0 
L 9.8125 72.90625 
L 32.078125 72.90625 
Q 44.578125 72.90625 50.734375 67.671875 
Q 56.890625 62.453125 56.890625 51.90625 
Q 56.890625 45.015625 53.6875 40.46875 
Q 50.484375 35.9375 44.390625 34.1875 
z
M 19.671875 64.796875 
L 19.671875 38.921875 
L 32.078125 38.921875 
Q 39.203125 38.921875 42.84375 42.21875 
Q 46.484375 45.515625 46.484375 51.90625 
Q 46.484375 58.296875 42.84375 61.546875 
Q 39.203125 64.796875 32.078125 64.796875 
z
" id="DejaVuSans-82"/>
     </defs>
     <g transform="translate(77.03 73.966937)scale(0.1 -0.1)">
      <use xlink:href="#DejaVuSans-82"/>
      <use x="69.419922" xlink:href="#DejaVuSans-101"/>
      <use x="130.943359" xlink:href="#DejaVuSans-106"/>
      <use x="158.726562" xlink:href="#DejaVuSans-101"/>
      <use x="220.25" xlink:href="#DejaVuSans-99"/>
      <use x="275.230469" xlink:href="#DejaVuSans-116"/>
      <use x="314.439453" xlink:href="#DejaVuSans-101"/>
      <use x="375.962891" xlink:href="#DejaVuSans-100"/>
      <use x="439.439453" xlink:href="#DejaVuSans-32"/>
      <use x="471.226562" xlink:href="#DejaVuSans-98"/>
      <use x="534.703125" xlink:href="#DejaVuSans-121"/>
      <use x="593.882812" xlink:href="#DejaVuSans-32"/>
      <use x="625.669922" xlink:href="#DejaVuSans-102"/>
      <use x="660.875" xlink:href="#DejaVuSans-95"/>
      <use x="710.875" xlink:href="#DejaVuSans-99"/>
      <use x="765.855469" xlink:href="#DejaVuSans-108"/>
      <use x="793.638672" xlink:href="#DejaVuSans-97"/>
      <use x="854.917969" xlink:href="#DejaVuSans-115"/>
      <use x="907.017578" xlink:href="#DejaVuSans-115"/>
      <use x="959.117188" xlink:href="#DejaVuSans-105"/>
      <use x="986.900391" xlink:href="#DejaVuSans-102"/>
     </g>
     <!--  at significance level 0.05 -->
     <defs>
      <path d="M 2.984375 54.6875 
L 12.5 54.6875 
L 29.59375 8.796875 
L 46.6875 54.6875 
L 56.203125 54.6875 
L 35.6875 0 
L 23.484375 0 
z
" id="DejaVuSans-118"/>
     </defs>
     <g transform="translate(77.03 85.442875)scale(0.1 -0.1)">
      <use xlink:href="#DejaVuSans-32"/>
      <use x="31.787109" xlink:href="#DejaVuSans-97"/>
      <use x="93.066406" xlink:href="#DejaVuSans-116"/>
      <use x="132.275391" xlink:href="#DejaVuSans-32"/>
      <use x="164.0625" xlink:href="#DejaVuSans-115"/>
      <use x="216.162109" xlink:href="#DejaVuSans-105"/>
      <use x="243.945312" xlink:href="#DejaVuSans-103"/>
      <use x="307.421875" xlink:href="#DejaVuSans-110"/>
      <use x="370.800781" xlink:href="#DejaVuSans-105"/>
      <use x="398.583984" xlink:href="#DejaVuSans-102"/>
      <use x="433.789062" xlink:href="#DejaVuSans-105"/>
      <use x="461.572266" xlink:href="#DejaVuSans-99"/>
      <use x="516.552734" xlink:href="#DejaVuSans-97"/>
      <use x="577.832031" xlink:href="#DejaVuSans-110"/>
      <use x="641.210938" xlink:href="#DejaVuSans-99"/>
      <use x="696.191406" xlink:href="#DejaVuSans-101"/>
      <use x="757.714844" xlink:href="#DejaVuSans-32"/>
      <use x="789.501953" xlink:href="#DejaVuSans-108"/>
      <use x="817.285156" xlink:href="#DejaVuSans-101"/>
      <use x="878.808594" xlink:href="#DejaVuSans-118"/>
      <use x="937.988281" xlink:href="#DejaVuSans-101"/>
      <use x="999.511719" xlink:href="#DejaVuSans-108"/>
      <use x="1027.294922" xlink:href="#DejaVuSans-32"/>
      <use x="1059.082031" xlink:href="#DejaVuSans-48"/>
      <use x="1122.705078" xlink:href="#DejaVuSans-46"/>
      <use x="1154.492188" xlink:href="#DejaVuSans-48"/>
      <use x="1218.115234" xlink:href="#DejaVuSans-53"/>
     </g>
    </g>
    <g id="patch_73">
     <path d="M 49.03 99.842875 
L 69.03 99.842875 
L 69.03 92.842875 
L 49.03 92.842875 
z
" style="fill:#ff0000;"/>
    </g>
    <g id="text_28">
     <!-- Importance mote load -->
     <defs>
      <path d="M 9.8125 72.90625 
L 19.671875 72.90625 
L 19.671875 0 
L 9.8125 0 
z
" id="DejaVuSans-73"/>
     </defs>
     <g transform="translate(77.03 99.842875)scale(0.1 -0.1)">
      <use xlink:href="#DejaVuSans-73"/>
      <use x="29.492188" xlink:href="#DejaVuSans-109"/>
      <use x="126.904297" xlink:href="#DejaVuSans-112"/>
      <use x="190.380859" xlink:href="#DejaVuSans-111"/>
      <use x="251.5625" xlink:href="#DejaVuSans-114"/>
      <use x="292.675781" xlink:href="#DejaVuSans-116"/>
      <use x="331.884766" xlink:href="#DejaVuSans-97"/>
      <use x="393.164062" xlink:href="#DejaVuSans-110"/>
      <use x="456.542969" xlink:href="#DejaVuSans-99"/>
      <use x="511.523438" xlink:href="#DejaVuSans-101"/>
      <use x="573.046875" xlink:href="#DejaVuSans-32"/>
      <use x="604.833984" xlink:href="#DejaVuSans-109"/>
      <use x="702.246094" xlink:href="#DejaVuSans-111"/>
      <use x="763.427734" xlink:href="#DejaVuSans-116"/>
      <use x="802.636719" xlink:href="#DejaVuSans-101"/>
      <use x="864.160156" xlink:href="#DejaVuSans-32"/>
      <use x="895.947266" xlink:href="#DejaVuSans-108"/>
      <use x="923.730469" xlink:href="#DejaVuSans-111"/>
      <use x="984.912109" xlink:href="#DejaVuSans-97"/>
      <use x="1046.191406" xlink:href="#DejaVuSans-100"/>
     </g>
    </g>
    <g id="patch_74">
     <path d="M 49.03 114.521 
L 69.03 114.521 
L 69.03 107.521 
L 49.03 107.521 
z
" style="fill:#0000ff;"/>
    </g>
    <g id="text_29">
     <!-- Importance link power -->
     <defs>
      <path d="M 4.203125 54.6875 
L 13.1875 54.6875 
L 24.421875 12.015625 
L 35.59375 54.6875 
L 46.1875 54.6875 
L 57.421875 12.015625 
L 68.609375 54.6875 
L 77.59375 54.6875 
L 63.28125 0 
L 52.6875 0 
L 40.921875 44.828125 
L 29.109375 0 
L 18.5 0 
z
" id="DejaVuSans-119"/>
     </defs>
     <g transform="translate(77.03 114.521)scale(0.1 -0.1)">
      <use xlink:href="#DejaVuSans-73"/>
      <use x="29.492188" xlink:href="#DejaVuSans-109"/>
      <use x="126.904297" xlink:href="#DejaVuSans-112"/>
      <use x="190.380859" xlink:href="#DejaVuSans-111"/>
      <use x="251.5625" xlink:href="#DejaVuSans-114"/>
      <use x="292.675781" xlink:href="#DejaVuSans-116"/>
      <use x="331.884766" xlink:href="#DejaVuSans-97"/>
      <use x="393.164062" xlink:href="#DejaVuSans-110"/>
      <use x="456.542969" xlink:href="#DejaVuSans-99"/>
      <use x="511.523438" xlink:href="#DejaVuSans-101"/>
      <use x="573.046875" xlink:href="#DejaVuSans-32"/>
      <use x="604.833984" xlink:href="#DejaVuSans-108"/>
      <use x="632.617188" xlink:href="#DejaVuSans-105"/>
      <use x="660.400391" xlink:href="#DejaVuSans-110"/>
      <use x="723.779297" xlink:href="#DejaVuSans-107"/>
      <use x="781.689453" xlink:href="#DejaVuSans-32"/>
      <use x="813.476562" xlink:href="#DejaVuSans-112"/>
      <use x="876.953125" xlink:href="#DejaVuSans-111"/>
      <use x="938.134766" xlink:href="#DejaVuSans-119"/>
      <use x="1019.921875" xlink:href="#DejaVuSans-101"/>
      <use x="1081.445312" xlink:href="#DejaVuSans-114"/>
     </g>
    </g>
    <g id="patch_75">
     <path d="M 49.03 129.199125 
L 69.03 129.199125 
L 69.03 122.199125 
L 49.03 122.199125 
z
" style="fill:#008000;"/>
    </g>
    <g id="text_30">
     <!-- Importance link distribution -->
     <g transform="translate(77.03 129.199125)scale(0.1 -0.1)">
      <use xlink:href="#DejaVuSans-73"/>
      <use x="29.492188" xlink:href="#DejaVuSans-109"/>
      <use x="126.904297" xlink:href="#DejaVuSans-112"/>
      <use x="190.380859" xlink:href="#DejaVuSans-111"/>
      <use x="251.5625" xlink:href="#DejaVuSans-114"/>
      <use x="292.675781" xlink:href="#DejaVuSans-116"/>
      <use x="331.884766" xlink:href="#DejaVuSans-97"/>
      <use x="393.164062" xlink:href="#DejaVuSans-110"/>
      <use x="456.542969" xlink:href="#DejaVuSans-99"/>
      <use x="511.523438" xlink:href="#DejaVuSans-101"/>
      <use x="573.046875" xlink:href="#DejaVuSans-32"/>
      <use x="604.833984" xlink:href="#DejaVuSans-108"/>
      <use x="632.617188" xlink:href="#DejaVuSans-105"/>
      <use x="660.400391" xlink:href="#DejaVuSans-110"/>
      <use x="723.779297" xlink:href="#DejaVuSans-107"/>
      <use x="781.689453" xlink:href="#DejaVuSans-32"/>
      <use x="813.476562" xlink:href="#DejaVuSans-100"/>
      <use x="876.953125" xlink:href="#DejaVuSans-105"/>
      <use x="904.736328" xlink:href="#DejaVuSans-115"/>
      <use x="956.835938" xlink:href="#DejaVuSans-116"/>
      <use x="996.044922" xlink:href="#DejaVuSans-114"/>
      <use x="1037.158203" xlink:href="#DejaVuSans-105"/>
      <use x="1064.941406" xlink:href="#DejaVuSans-98"/>
      <use x="1128.417969" xlink:href="#DejaVuSans-117"/>
      <use x="1191.796875" xlink:href="#DejaVuSans-116"/>
      <use x="1231.005859" xlink:href="#DejaVuSans-105"/>
      <use x="1258.789062" xlink:href="#DejaVuSans-111"/>
      <use x="1319.970703" xlink:href="#DejaVuSans-110"/>
     </g>
    </g>
    <g id="patch_76">
     <path d="M 49.03 143.87725 
L 69.03 143.87725 
L 69.03 136.87725 
L 49.03 136.87725 
z
"/>
    </g>
    <g id="text_31">
     <!-- Importance link SNR -->
     <defs>
      <path d="M 53.515625 70.515625 
L 53.515625 60.890625 
Q 47.90625 63.578125 42.921875 64.890625 
Q 37.9375 66.21875 33.296875 66.21875 
Q 25.25 66.21875 20.875 63.09375 
Q 16.5 59.96875 16.5 54.203125 
Q 16.5 49.359375 19.40625 46.890625 
Q 22.3125 44.4375 30.421875 42.921875 
L 36.375 41.703125 
Q 47.40625 39.59375 52.65625 34.296875 
Q 57.90625 29 57.90625 20.125 
Q 57.90625 9.515625 50.796875 4.046875 
Q 43.703125 -1.421875 29.984375 -1.421875 
Q 24.8125 -1.421875 18.96875 -0.25 
Q 13.140625 0.921875 6.890625 3.21875 
L 6.890625 13.375 
Q 12.890625 10.015625 18.65625 8.296875 
Q 24.421875 6.59375 29.984375 6.59375 
Q 38.421875 6.59375 43.015625 9.90625 
Q 47.609375 13.234375 47.609375 19.390625 
Q 47.609375 24.75 44.3125 27.78125 
Q 41.015625 30.8125 33.5 32.328125 
L 27.484375 33.5 
Q 16.453125 35.6875 11.515625 40.375 
Q 6.59375 45.0625 6.59375 53.421875 
Q 6.59375 63.09375 13.40625 68.65625 
Q 20.21875 74.21875 32.171875 74.21875 
Q 37.3125 74.21875 42.625 73.28125 
Q 47.953125 72.359375 53.515625 70.515625 
z
" id="DejaVuSans-83"/>
     </defs>
     <g transform="translate(77.03 143.87725)scale(0.1 -0.1)">
      <use xlink:href="#DejaVuSans-73"/>
      <use x="29.492188" xlink:href="#DejaVuSans-109"/>
      <use x="126.904297" xlink:href="#DejaVuSans-112"/>
      <use x="190.380859" xlink:href="#DejaVuSans-111"/>
      <use x="251.5625" xlink:href="#DejaVuSans-114"/>
      <use x="292.675781" xlink:href="#DejaVuSans-116"/>
      <use x="331.884766" xlink:href="#DejaVuSans-97"/>
      <use x="393.164062" xlink:href="#DejaVuSans-110"/>
      <use x="456.542969" xlink:href="#DejaVuSans-99"/>
      <use x="511.523438" xlink:href="#DejaVuSans-101"/>
      <use x="573.046875" xlink:href="#DejaVuSans-32"/>
      <use x="604.833984" xlink:href="#DejaVuSans-108"/>
      <use x="632.617188" xlink:href="#DejaVuSans-105"/>
      <use x="660.400391" xlink:href="#DejaVuSans-110"/>
      <use x="723.779297" xlink:href="#DejaVuSans-107"/>
      <use x="781.689453" xlink:href="#DejaVuSans-32"/>
      <use x="813.476562" xlink:href="#DejaVuSans-83"/>
      <use x="876.953125" xlink:href="#DejaVuSans-78"/>
      <use x="951.757812" xlink:href="#DejaVuSans-82"/>
     </g>
    </g>
   </g>
  </g>
 </g>
 <defs>
  <clipPath id="p08316caf05">
   <rect height="275.864" width="407.45" x="40.03" y="41.856"/>
  </clipPath>
 </defs>
</svg>
